<svg width="194" height="72" viewBox="0 0 194 72" fill="none" xmlns="http://www.w3.org/2000/svg">
<rect width="194" height="72" fill="#1E1E1E"/>
<path d="M37.032 15.68C37.032 17.6427 36.8613 19.3493 36.52 20.8H32.68C33.0213 22.1653 33.192 23.872 33.192 25.92C33.192 27.8827 33.0213 29.5893 32.68 31.04H25C25.3413 32.4053 25.512 34.112 25.512 36.16C25.512 38.1227 25.3413 39.8293 25 41.28H17.32C17.6613 42.6453 17.832 44.352 17.832 46.4C17.832 48.3627 17.6613 50.0693 17.32 51.52H10.92C11.2613 52.8853 11.432 54.592 11.432 56.64C11.432 58.6027 11.2613 60.3093 10.92 61.76H36.52C36.8613 63.1253 37.032 64.832 37.032 66.88C37.032 68.8427 36.8613 70.5493 36.52 72H0.68C0.338667 70.5493 0.168 68.8427 0.168 66.88C0.168 64.832 0.338667 63.1253 0.68 61.76C0.338667 60.3093 0.168 58.6027 0.168 56.64C0.168 54.592 0.338667 52.8853 0.68 51.52H7.08C6.73867 50.0693 6.568 48.3627 6.568 46.4C6.568 44.352 6.73867 42.6453 7.08 41.28H14.76C14.4187 39.8293 14.248 38.1227 14.248 36.16C14.248 34.112 14.4187 32.4053 14.76 31.04H22.44C22.0987 29.5893 21.928 27.8827 21.928 25.92C21.928 23.872 22.0987 22.1653 22.44 20.8H26.28C25.9387 19.3493 25.768 17.6427 25.768 15.68C25.768 13.632 25.9387 11.9253 26.28 10.56H0.68C0.338667 9.10933 0.168 7.40266 0.168 5.43999C0.168 3.392 0.338667 1.68533 0.68 0.32H36.52C36.8613 1.68533 37.032 3.392 37.032 5.43999C37.032 7.40266 36.8613 9.10933 36.52 10.56C36.8613 11.9253 37.032 13.632 37.032 15.68ZM90.33 51.52C90.6713 52.8853 90.842 54.592 90.842 56.64C90.842 58.6027 90.6713 60.3093 90.33 61.76H85.21C85.5513 63.1253 85.722 64.832 85.722 66.88C85.722 68.8427 85.5513 70.5493 85.21 72H59.61C59.2687 70.5493 59.098 68.8427 59.098 66.88C59.098 64.832 59.2687 63.1253 59.61 61.76H54.49C54.1487 60.3093 53.978 58.6027 53.978 56.64C53.978 54.592 54.1487 52.8853 54.49 51.52H49.37C49.0287 50.0693 48.858 48.3627 48.858 46.4C48.858 44.352 49.0287 42.6453 49.37 41.28C49.0287 39.8293 48.858 38.1227 48.858 36.16C48.858 34.112 49.0287 32.4053 49.37 31.04C49.0287 29.5893 48.858 27.8827 48.858 25.92C48.858 23.872 49.0287 22.1653 49.37 20.8H54.49C54.1487 19.3493 53.978 17.6427 53.978 15.68C53.978 13.632 54.1487 11.9253 54.49 10.56H59.61C59.2687 9.10933 59.098 7.40266 59.098 5.43999C59.098 3.392 59.2687 1.68533 59.61 0.32H85.21C85.5513 1.68533 85.722 3.392 85.722 5.43999C85.722 7.40266 85.5513 9.10933 85.21 10.56H90.33C90.6713 11.9253 90.842 13.632 90.842 15.68C90.842 17.6427 90.6713 19.3493 90.33 20.8H80.09C79.7487 19.3493 79.578 17.6427 79.578 15.68C79.578 13.632 79.7487 11.9253 80.09 10.56H64.73C65.0713 11.9253 65.242 13.632 65.242 15.68C65.242 17.6427 65.0713 19.3493 64.73 20.8H59.61C59.9513 22.1653 60.122 23.872 60.122 25.92C60.122 27.8827 59.9513 29.5893 59.61 31.04C59.9513 32.4053 60.122 34.112 60.122 36.16C60.122 38.1227 59.9513 39.8293 59.61 41.28C59.9513 42.6453 60.122 44.352 60.122 46.4C60.122 48.3627 59.9513 50.0693 59.61 51.52H64.73C65.0713 52.8853 65.242 54.592 65.242 56.64C65.242 58.6027 65.0713 60.3093 64.73 61.76H80.09C79.7487 60.3093 79.578 58.6027 79.578 56.64C79.578 54.592 79.7487 52.8853 80.09 51.52H90.33ZM136.46 61.76C136.801 63.1253 136.972 64.832 136.972 66.88C136.972 68.8427 136.801 70.5493 136.46 72H105.74C105.399 70.5493 105.228 68.8427 105.228 66.88C105.228 64.832 105.399 63.1253 105.74 61.76H115.98C115.639 60.3093 115.468 58.6027 115.468 56.64C115.468 54.592 115.639 52.8853 115.98 51.52C115.639 50.0693 115.468 48.3627 115.468 46.4C115.468 44.352 115.639 42.6453 115.98 41.28C115.639 39.8293 115.468 38.1227 115.468 36.16C115.468 34.112 115.639 32.4053 115.98 31.04C115.639 29.5893 115.468 27.8827 115.468 25.92C115.468 23.872 115.639 22.1653 115.98 20.8H108.3C107.959 19.3493 107.788 17.6427 107.788 15.68C107.788 13.632 107.959 11.9253 108.3 10.56H115.98C115.639 9.10933 115.468 7.40266 115.468 5.43999C115.468 3.392 115.639 1.68533 115.98 0.32H126.22C126.561 1.68533 126.732 3.392 126.732 5.43999C126.732 7.40266 126.561 9.10933 126.22 10.56C126.561 11.9253 126.732 13.632 126.732 15.68C126.732 17.6427 126.561 19.3493 126.22 20.8C126.561 22.1653 126.732 23.872 126.732 25.92C126.732 27.8827 126.561 29.5893 126.22 31.04C126.561 32.4053 126.732 34.112 126.732 36.16C126.732 38.1227 126.561 39.8293 126.22 41.28C126.561 42.6453 126.732 44.352 126.732 46.4C126.732 48.3627 126.561 50.0693 126.22 51.52C126.561 52.8853 126.732 54.592 126.732 56.64C126.732 58.6027 126.561 60.3093 126.22 61.76H136.46ZM193.342 46.4C193.342 48.3627 193.171 50.0693 192.83 51.52H187.71C188.051 52.8853 188.222 54.592 188.222 56.64C188.222 58.6027 188.051 60.3093 187.71 61.76C188.051 63.1253 188.222 64.832 188.222 66.88C188.222 68.8427 188.051 70.5493 187.71 72H177.47C177.129 70.5493 176.958 68.8427 176.958 66.88C176.958 64.832 177.129 63.1253 177.47 61.76C177.129 60.3093 176.958 58.6027 176.958 56.64C176.958 54.592 177.129 52.8853 177.47 51.52H151.87C151.529 50.0693 151.358 48.3627 151.358 46.4C151.358 44.352 151.529 42.6453 151.87 41.28H155.71C155.369 39.8293 155.198 38.1227 155.198 36.16C155.198 34.112 155.369 32.4053 155.71 31.04H159.55C159.209 29.5893 159.038 27.8827 159.038 25.92C159.038 23.872 159.209 22.1653 159.55 20.8H163.39C163.049 19.3493 162.878 17.6427 162.878 15.68C162.878 13.632 163.049 11.9253 163.39 10.56H169.79C170.131 11.9253 170.302 13.632 170.302 15.68C170.302 17.6427 170.131 19.3493 169.79 20.8H165.95C166.291 22.1653 166.462 23.872 166.462 25.92C166.462 27.8827 166.291 29.5893 165.95 31.04H162.11C162.451 32.4053 162.622 34.112 162.622 36.16C162.622 38.1227 162.451 39.8293 162.11 41.28H177.47C177.129 39.8293 176.958 38.1227 176.958 36.16C176.958 34.112 177.129 32.4053 177.47 31.04C177.129 29.5893 176.958 27.8827 176.958 25.92C176.958 23.872 177.129 22.1653 177.47 20.8C177.129 19.3493 176.958 17.6427 176.958 15.68C176.958 13.632 177.129 11.9253 177.47 10.56H169.79C169.449 9.10933 169.278 7.40266 169.278 5.43999C169.278 3.392 169.449 1.68533 169.79 0.32H187.71C188.051 1.68533 188.222 3.392 188.222 5.43999C188.222 7.40266 188.051 9.10933 187.71 10.56C188.051 11.9253 188.222 13.632 188.222 15.68C188.222 17.6427 188.051 19.3493 187.71 20.8C188.051 22.1653 188.222 23.872 188.222 25.92C188.222 27.8827 188.051 29.5893 187.71 31.04C188.051 32.4053 188.222 34.112 188.222 36.16C188.222 38.1227 188.051 39.8293 187.71 41.28H192.83C193.171 42.6453 193.342 44.352 193.342 46.4Z" fill="#8EFF72"/>
</svg>
